<?xml version="1.0" encoding="utf-8"?>
<!-- Generator: Adobe Illustrator 24.0.2, SVG Export Plug-In . SVG Version: 6.00 Build 0)  -->
<svg version="1.1" id="Слой_1" xmlns="http://www.w3.org/2000/svg" xmlns:xlink="http://www.w3.org/1999/xlink" x="0px" y="0px"
	 viewBox="0 0 100 100" style="enable-background:new 0 0 100 100;" xml:space="preserve">
<style type="text/css">
	.st0{fill:#024C42;}
</style>
<g>
	<path class="st0" d="M21.3,89.9c-0.9-0.4-1.3-1.2-1.3-2.2c0-23.5,0-47,0-70.5c0-4.3,2.8-7.1,7.1-7.1c10.8,0,21.6,0,32.4,0
		c3.5,0,6,1.8,6.9,5.1c0.2,0.6,0.2,1.3,0.2,2c0,3.1,0,6.1,0,9.2c0,0.7-0.1,1.4-0.7,1.8c-0.8,0.6-1.5,0.3-2.2-0.2
		c-1.5-1.1-3.1-1.5-4.9-1.1c-2.4,0.5-4,2-4.9,4.3c-0.7,2-1.5,4-2.2,6c-0.3,1-1,1.4-2,1.5c-2.6,0.3-5.2,0.5-7.8,0.9
		c-2.5,0.4-4.1,2-4.8,4.3c-0.7,2.4-0.3,4.6,1.5,6.3c1.9,1.8,4,3.5,6,5.2c1,0.8,1.3,1.6,1,2.9c-0.6,2.4-1.1,4.9-1.6,7.3
		c-0.5,2.3,0,4.9,3.2,6.8c2.2,1.3,4.5,1.2,6.7-0.3c1.7-1.1,3.3-2.3,4.9-3.5c1.1-0.7,1.6-0.7,2.6,0c1.4,1,2.9,2.1,4.3,3.1
		c0.8,0.5,1.1,1.2,1.1,2.1c0,4.6,0,9.3,0,13.9c0,1-0.3,1.8-1.2,2.2c-0.3,0-0.6,0-0.9,0c-0.4-0.3-0.8-0.6-1.2-0.8
		c-6.4-4.9-12.8-9.9-19.3-14.8c-0.2-0.2-0.5-0.3-0.7-0.5C36.4,79.2,29.4,84.6,22.4,90C21.9,89.9,21.6,89.9,21.3,89.9z"/>
	<path class="st0" d="M47,66.9c0.4-1.8,0.8-3.6,1.2-5.4c0.4-1.7,0.8-3.5,1.2-5.2c0.2-0.6,0-1-0.5-1.4c-2.6-2.1-5.1-4.3-7.6-6.5
		c-1.3-1.2-1.6-2.6-0.9-4c0.6-1,1.5-1.5,2.6-1.6c3.3-0.4,6.6-0.8,9.8-1.1c0.6-0.1,0.8-0.3,1-0.8c1-2.8,2.1-5.6,3.2-8.5
		c0.4-1.1,1.1-2,2.4-2.2c1.3-0.3,2.6,0.3,3.2,1.4c0.5,1,0.9,2.1,1.3,3.1c0.8,2,1.6,4.1,2.3,6.1c0.2,0.5,0.4,0.8,1,0.8
		c3.3,0.3,6.5,0.7,9.8,1.1c1.4,0.2,2.4,0.8,2.9,2.2c0.4,1.4,0,2.5-1.1,3.4c-2.6,2.2-5.1,4.4-7.7,6.6c-0.4,0.3-0.6,0.6-0.4,1.2
		c0.8,3.2,1.4,6.4,2.2,9.6c0.6,2.6-1,4-2.5,4.2c-1,0.1-1.8-0.2-2.5-0.8c-2.2-1.6-4.5-3.2-6.7-4.8c-0.7-0.6-1.2-0.6-2,0
		c-2.2,1.7-4.5,3.3-6.8,4.9c-1.8,1.3-3.9,0.8-4.8-1C47.2,67.8,47.1,67.3,47,66.9z"/>
</g>
</svg>
