<?xml version="1.0" encoding="utf-8"?>
<!-- Generator: Adobe Illustrator 24.0.2, SVG Export Plug-In . SVG Version: 6.00 Build 0)  -->
<svg version="1.1" id="Слой_1" xmlns="http://www.w3.org/2000/svg" xmlns:xlink="http://www.w3.org/1999/xlink" x="0px" y="0px"
	 viewBox="0 0 100 100" style="enable-background:new 0 0 100 100;" xml:space="preserve">
<style type="text/css">
	.st0{fill:#1E776D;}
</style>
<g>
	<path class="st0" d="M32.4,48.6c0.3-0.5,0.5-0.9,0.7-1.3c4.7-8.2,9.3-16.5,14-24.7c1-1.8,3-2.4,4.5-1.3c0.5,0.4,0.9,1,1.3,1.5
		c4.7,8.3,9.4,16.6,14.1,24.9c0.2,0.3,0.4,0.6,0.6,0.9c3.3-1.6,6.5-3.2,9.8-4.7c2.6-1.3,5.3-2.6,7.9-3.9c1.3-0.6,2.5-0.7,3.7,0.2
		c1.2,0.9,1.3,2.2,1,3.6c-2.5,10.8-4.9,21.7-7.4,32.5c-0.5,2-1.5,2.8-3.6,2.8c-19.3,0-38.7,0-58,0c-2.2,0-3.2-0.8-3.6-2.9
		c-2.4-10.9-4.8-21.8-7.2-32.7c-0.3-1.3,0-2.5,1.1-3.4c1.1-0.8,2.2-0.8,3.4-0.2C20.5,42.9,26.4,45.7,32.4,48.6z"/>
</g>
</svg>
