<?xml version="1.0" encoding="utf-8"?>
<!-- Generator: Adobe Illustrator 24.0.2, SVG Export Plug-In . SVG Version: 6.00 Build 0)  -->
<svg version="1.1" id="Слой_1" xmlns="http://www.w3.org/2000/svg" xmlns:xlink="http://www.w3.org/1999/xlink" x="0px" y="0px"
	 viewBox="0 0 100 100" style="enable-background:new 0 0 100 100;" xml:space="preserve">
<style type="text/css">
	.st0{fill:#660708;}
</style>
<g>
	<path class="st0" d="M71.2,90c-14.2,0-28.3,0-42.5,0c-0.1,0-0.2-0.1-0.3-0.1c-5.2-1-8.5-4.9-8.5-10.1c0-16.3,0-32.6,0-48.9
		c0-0.3,0-0.5,0-0.8c20.1,0,40,0,60,0c0,0.2,0,0.4,0,0.6c0,16.5,0,33,0,49.5c0,4.5-3.1,8.4-7.4,9.5C72.1,89.8,71.7,89.9,71.2,90z"/>
	<path class="st0" d="M60,10c0,1.6,0,3.3,0,5c8.3,0,16.6,0,25,0c0,3.4,0,6.6,0,10c-23.3,0-46.6,0-69.9,0c0-3.3,0-6.6,0-9.9
		c8.3,0,16.6,0,25,0c0-1.7,0-3.4,0-5C46.7,10,53.3,10,60,10z"/>
</g>
</svg>
