<?xml version="1.0" encoding="utf-8"?>
<!-- Generator: Adobe Illustrator 24.0.2, SVG Export Plug-In . SVG Version: 6.00 Build 0)  -->
<svg version="1.1" id="Слой_1" xmlns="http://www.w3.org/2000/svg" xmlns:xlink="http://www.w3.org/1999/xlink" x="0px" y="0px"
	 viewBox="0 0 100 100" style="enable-background:new 0 0 100 100;" xml:space="preserve">
<style type="text/css">
	.st0{fill:#024C42;}
</style>
<g>
	<path class="st0" d="M10.1,73.2c0.2-0.2,0.4-0.4,0.6-0.6c16-15.9,31.9-31.9,47.9-47.9c0.2-0.2,0.3-0.4,0.4-0.5
		c5.6,5.6,11.1,11.1,16.7,16.7c-0.1,0.1-0.3,0.3-0.4,0.5c-16,16-31.9,31.9-47.8,47.9c-0.5,0.5-1,0.7-1.6,0.7c-5.2,0-10.4,0-15.7,0
		C10.1,84.4,10.1,78.8,10.1,73.2z"/>
	<path class="st0" d="M75.9,10.1c1.4,0.4,2.4,1.3,3.4,2.3c3,3,5.9,6,8.9,8.9c2.3,2.3,2.3,4.8,0,7.1c-2.5,2.6-5.1,5.1-7.6,7.6
		C75.1,30.5,69.5,25,63.9,19.3c0.3-0.3,0.8-0.6,1.2-1c1.9-1.9,3.9-3.8,5.8-5.8c1-1,2-2,3.5-2.4C74.8,10.1,75.4,10.1,75.9,10.1z"/>
</g>
</svg>
