<?xml version="1.0" encoding="utf-8"?>
<!-- Generator: Adobe Illustrator 24.0.2, SVG Export Plug-In . SVG Version: 6.00 Build 0)  -->
<svg version="1.1" id="Слой_1" xmlns="http://www.w3.org/2000/svg" xmlns:xlink="http://www.w3.org/1999/xlink" x="0px" y="0px"
	 viewBox="0 0 100 100" style="enable-background:new 0 0 100 100;" xml:space="preserve">
<style type="text/css">
	.st0{fill:#024C42;}
</style>
<g>
	<path class="st0" d="M10,69.5c0.2-0.7,0.3-1.4,0.5-2c0.9-2.9,3-4.7,5.6-6.1c8.6-4.8,17.7-6.8,27.5-6.1c7.7,0.5,14.8,2.8,21.4,6.8
		c3.3,2,4.9,5,5,8.8c0,4.5,0,9,0,13.4c0,0.2,0,0.4,0,0.7c-20,0-40,0-60,0C10,79.9,10,74.7,10,69.5z"/>
	<path class="st0" d="M90,85c-5,0-9.9,0-15,0c0-0.3,0-0.6,0-0.9c0-4.3,0-8.7,0-13c0-5.8-2.5-10.4-7.6-13.4c-1.2-0.7-2.5-1.4-3.8-2
		c-0.2-0.1-0.4-0.2-0.6-0.4c4,0.2,7.9,0.9,11.8,2.1c3.6,1.1,7,2.7,10.3,4.7c2.7,1.6,4.3,4,4.8,7.1c0,0.1,0.1,0.2,0.1,0.4
		C90,74.7,90,79.9,90,85z"/>
	<path class="st0" d="M40,50c-9.6,0-17.5-7.8-17.5-17.5C22.5,22.8,30.4,15,40,15c9.6,0,17.5,7.9,17.5,17.5C57.5,42.2,49.6,50,40,50z
		"/>
	<path class="st0" d="M55,15.9c6.4-2.4,14.5,0.2,18.9,6.1c4.7,6.1,4.7,14.6,0.2,20.8c-4.4,6.1-12.4,8.7-19.1,6.4
		c4.8-4.5,7.4-10,7.4-16.6C62.5,26,59.9,20.5,55,15.9z"/>
</g>
</svg>
