<?xml version="1.0" encoding="utf-8"?>
<!-- Generator: Adobe Illustrator 24.0.2, SVG Export Plug-In . SVG Version: 6.00 Build 0)  -->
<svg version="1.1" id="Слой_1" xmlns="http://www.w3.org/2000/svg" xmlns:xlink="http://www.w3.org/1999/xlink" x="0px" y="0px"
	 viewBox="0 0 100 100" style="enable-background:new 0 0 100 100;" xml:space="preserve">
<style type="text/css">
	.st0{fill:#024C42;}
</style>
<g>
	<path class="st0" d="M32.8,10c0,3.8,0,7.5,0,11.4c-3.8,0-7.5,0-11.4,0c0,3.8,0,7.6,0,11.4c-3.9,0-7.7,0-11.4,0c0-7.6,0-15.2,0-22.8
		C17.6,10,25.2,10,32.8,10z"/>
	<path class="st0" d="M90,32.8c-3.8,0-7.5,0-11.4,0c0-3.8,0-7.5,0-11.4c-3.8,0-7.6,0-11.4,0c0-3.9,0-7.7,0-11.4c7.6,0,15.2,0,22.8,0
		C90,17.6,90,25.2,90,32.8z"/>
	<path class="st0" d="M10,67.2c3.8,0,7.5,0,11.4,0c0,3.8,0,7.5,0,11.4c3.8,0,7.6,0,11.4,0c0,3.9,0,7.7,0,11.4c-7.6,0-15.2,0-22.8,0
		C10,82.4,10,74.8,10,67.2z"/>
	<path class="st0" d="M67.2,90c0-3.8,0-7.5,0-11.4c3.8,0,7.5,0,11.4,0c0-3.8,0-7.6,0-11.4c3.9,0,7.7,0,11.4,0c0,7.6,0,15.2,0,22.8
		C82.4,90,74.8,90,67.2,90z"/>
</g>
</svg>
