<?xml version="1.0" encoding="utf-8"?>
<!-- Generator: Adobe Illustrator 24.0.2, SVG Export Plug-In . SVG Version: 6.00 Build 0)  -->
<svg version="1.1" id="Слой_1" xmlns="http://www.w3.org/2000/svg" xmlns:xlink="http://www.w3.org/1999/xlink" x="0px" y="0px"
	 viewBox="0 0 100 100" style="enable-background:new 0 0 100 100;" xml:space="preserve">
<style type="text/css">
	.st0{fill:#024C42;}
</style>
<g>
	<path class="st0" d="M90,30.8c-0.2,1.1-0.4,2.1-0.6,3.2c-0.8,3.3-2.4,6.1-4.8,8.5C78.8,48.2,73.2,54,67.4,59.7
		c-7.2,7-18.7,7.1-26.1,0.3c-0.2-0.2-0.4-0.4-0.5-0.5c2.3-2.3,4.7-4.7,7.1-7c1.3,1.2,2.9,2,4.7,2.3c3.1,0.5,5.8-0.2,8.1-2.4
		c5.6-5.5,11.1-11.1,16.7-16.7c2.5-2.6,3.4-5.7,2.4-9.1c-1-3.4-3.3-5.5-6.7-6.3c-3-0.7-5.8,0-8.1,2.1c-3.1,2.9-6.1,6-9.1,9
		c-0.4,0.4-0.8,0.5-1.4,0.3c-3.7-1.3-7.4-1.9-11.3-1.3c-0.1,0-0.3,0-0.5,0c0.2-0.2,0.3-0.4,0.4-0.5c4.7-4.7,9.5-9.5,14.2-14.2
		c3.2-3.2,7-5.1,11.5-5.6c0.1,0,0.2-0.1,0.4-0.1c1.1,0,2.3,0,3.4,0c0.2,0,0.3,0.1,0.5,0.1c7.8,1,14.2,6.4,16.3,13.9
		c0.3,1.1,0.5,2.3,0.7,3.4C90,28.6,90,29.7,90,30.8z"/>
	<path class="st0" d="M10,69.1c0.2-1.1,0.4-2.2,0.7-3.3c0.9-3.3,2.6-6.1,5-8.5c5.5-5.5,11-11.1,16.6-16.6c7.1-7,18.8-7.4,26.4-0.8
		c0.3,0.2,0.5,0.5,0.7,0.7c-2.4,2.3-4.7,4.7-7.1,7c-2-1.8-4.4-2.6-7.1-2.4c-2.1,0.2-4,0.9-5.5,2.4c-5.7,5.7-11.4,11.3-17.1,17.1
		c-2.7,2.7-3.3,6.7-1.7,10.1c1.6,3.4,5,5.5,8.8,5.3c2.2-0.1,4.2-0.9,5.8-2.5c3-3,6-5.9,9-8.9c0.3-0.3,0.5-0.5,1-0.3
		c3.8,1.5,7.7,2.1,11.7,1.4c0,0,0.1,0,0.2,0.1c-0.2,0.2-0.4,0.4-0.5,0.6c-4.5,4.5-9,9-13.5,13.5c-3.3,3.4-7.2,5.5-12,6
		c-0.2,0-0.3,0.1-0.4,0.1c-1.1,0-2.2,0-3.3,0c-0.2,0-0.4-0.1-0.6-0.1c-7.5-0.8-14-6.3-16.1-13.6c-0.4-1.2-0.5-2.5-0.8-3.8
		C10,71.4,10,70.2,10,69.1z"/>
</g>
</svg>
