<?xml version="1.0" encoding="utf-8"?>
<!-- Generator: Adobe Illustrator 24.0.2, SVG Export Plug-In . SVG Version: 6.00 Build 0)  -->
<svg version="1.1" id="login" xmlns="http://www.w3.org/2000/svg" xmlns:xlink="http://www.w3.org/1999/xlink" x="0px" y="0px"
	 viewBox="0 0 100 100" style="enable-background:new 0 0 100 100;" xml:space="preserve">
<style type="text/css">
	.st0{fill:#024C42;}
</style>
<g>
	<path class="st0" d="M25,90c0-5,0-9.9,0-15c3.3,0,6.6,0,10,0c0,1.6,0,3.2,0,4.9c13.3,0,26.6,0,40,0c0-19.9,0-39.9,0-59.9
		c-13.3,0-26.6,0-39.9,0c0,1.6,0,3.2,0,4.9c-3.3,0-6.6,0-10,0c0-5,0-10,0-14.9c20,0,40,0,60,0c0,26.7,0,53.3,0,80C65,90,45,90,25,90
		z"/>
	<path class="st0" d="M40.8,45c-2.3-2.3-4.3-4.3-6.4-6.4c2.4-2.4,4.7-4.7,7-7c6.1,6.1,12.2,12.2,18.3,18.3
		c-6.1,6.1-12.2,12.2-18.3,18.3c-2.2-2.2-4.6-4.6-6.9-6.9c2-2,4.1-4.1,6.4-6.3c-8.8,0-17.3,0-25.9,0c0-3.4,0-6.7,0-10
		C23.5,45,32.1,45,40.8,45z"/>
</g>
</svg>
