<?xml version="1.0" encoding="utf-8"?>
<!-- Generator: Adobe Illustrator 24.0.2, SVG Export Plug-In . SVG Version: 6.00 Build 0)  -->
<svg version="1.1" id="logout" xmlns="http://www.w3.org/2000/svg" xmlns:xlink="http://www.w3.org/1999/xlink" x="0px" y="0px"
	 viewBox="0 0 100 100" style="enable-background:new 0 0 100 100;" xml:space="preserve">
<style type="text/css">
	.st0{fill:#024C42;}
</style>
<g>
	<path class="st0" d="M70,10c0,5,0,9.9,0,15c-3.3,0-6.6,0-10,0c0-1.6,0-3.2,0-4.9c-13.3,0-26.6,0-40,0c0,19.9,0,39.9,0,59.9
		c13.3,0,26.6,0,39.9,0c0-1.6,0-3.2,0-4.9c3.3,0,6.6,0,10,0c0,5,0,10,0,14.9c-20,0-40,0-60,0c0-26.6,0-53.3,0-80C30,10,50,10,70,10z
		"/>
	<path class="st0" d="M90,50.2c-0.2,0.2-0.5,0.3-0.7,0.5c-5.7,5.7-11.5,11.4-17.2,17.2c-0.2,0.2-0.4,0.5-0.5,0.7
		c-2.5-2.5-4.8-4.8-7.2-7.2c2-2,4.1-4.1,6.3-6.3c-8.7,0-17.2,0-25.8,0c0-3.4,0-6.6,0-10c8.5,0,17.1,0,25.6,0
		c-2.1-2.1-4.2-4.2-6.3-6.3c2.5-2.5,4.8-4.8,7.3-7.3c0.1,0.2,0.3,0.5,0.5,0.7c5.7,5.7,11.4,11.5,17.2,17.2c0.2,0.2,0.4,0.3,0.7,0.5
		C90,49.9,90,50.1,90,50.2z"/>
</g>
</svg>
