<?xml version="1.0" encoding="utf-8"?>
<!-- Generator: Adobe Illustrator 24.0.2, SVG Export Plug-In . SVG Version: 6.00 Build 0)  -->
<svg version="1.1" id="Слой_1" xmlns="http://www.w3.org/2000/svg" xmlns:xlink="http://www.w3.org/1999/xlink" x="0px" y="0px"
	 viewBox="0 0 100 100" style="enable-background:new 0 0 100 100;" xml:space="preserve">
<style type="text/css">
	.st0{fill:#024C42;}
</style>
<g>
	<path class="st0" d="M10,18.1c0-0.1,0-0.1,0-0.2c0.2-0.2,0.4-0.3,0.6-0.5c2.2-2.2,4.5-4.5,6.7-6.7c0.2-0.2,0.4-0.5,0.6-0.8
		c0.1,0,0.1,0,0.2,0c0.2,0.2,0.3,0.4,0.5,0.5c23.5,23.5,47.1,47.1,70.6,70.6c0.3,0.3,0.5,0.5,0.8,0.7c0,0.1,0,0.1,0,0.2
		c-0.2,0.2-0.4,0.3-0.6,0.5c-2.1,2.1-4.2,4.2-6.3,6.3c-0.4,0.4-0.7,0.8-1.1,1.2c-0.1,0-0.1,0-0.2,0c-3-2.9-6-5.9-9.1-8.9
		c0,3,0,6,0,8.9c-3.6,0-7.2,0-10.8,0c-0.1-0.1-0.2-0.3-0.3-0.4c-6.4-5.5-12.8-11-19.2-16.5c-0.3-0.2-0.7-0.3-1.1-0.3
		c-4.5,0-8.9,0-13.4,0c-0.3,0-0.6,0-1,0c0-0.4,0-0.8,0-1.1c0-11.9,0-23.8,0-35.7c0-0.6-0.2-1-0.6-1.4c-5.4-5.4-10.8-10.7-16.1-16.1
		C10.3,18.4,10.2,18.3,10,18.1z"/>
	<path class="st0" d="M72.8,10c0,0.3,0,0.6,0,0.9c0,14.9,0,29.8,0,44.8c0,0.3,0,0.6,0,0.8C62.9,46.4,53,36.5,43,26.5
		c0.1-0.1,0.4-0.3,0.7-0.6c5.9-5.1,11.9-10.2,17.8-15.3c0.2-0.2,0.4-0.4,0.6-0.6C65.6,10,69.2,10,72.8,10z"/>
</g>
</svg>
