<?xml version="1.0" encoding="utf-8"?>
<!-- Generator: Adobe Illustrator 24.0.2, SVG Export Plug-In . SVG Version: 6.00 Build 0)  -->
<svg version="1.1" id="Слой_1" xmlns="http://www.w3.org/2000/svg" xmlns:xlink="http://www.w3.org/1999/xlink" x="0px" y="0px"
	 viewBox="0 0 100 100" style="enable-background:new 0 0 100 100;" xml:space="preserve">
<style type="text/css">
	.st0{fill:#141414;}
</style>
<g>
	<path class="st0" d="M90,10.5c-0.3,1.6-0.6,3.1-0.9,4.7c-1.8,9.8-3.5,19.6-5.3,29.4c-1.7,9.5-3.4,18.9-5.1,28.4
		c-0.4,2.3-0.8,4.6-1.3,7c-2.9-1.1-5.8-2.1-8.6-3.2c-3-1.1-6-2.2-8.9-3.3c-0.5-0.2-0.8-0.1-1.1,0.3c-4.4,5.1-8.8,10.2-13.2,15.4
		c-0.2,0.2-0.4,0.4-0.7,0.8c0-0.3-0.1-0.6-0.1-0.8c0-6.8,0-13.7,0-20.5c0-0.4,0.2-0.9,0.5-1.3c9.5-12.8,19-25.6,28.5-38.4
		c0.2-0.2,0.3-0.5,0.4-0.8c-0.2,0.1-0.3,0.3-0.5,0.4C61.3,40.4,48.7,52.2,36.1,64c-0.3,0.3-0.6,0.5-1.1,0.3c-8.1-3-16.3-6-24.4-9.1
		c-0.1-0.1-0.3-0.1-0.5-0.2c0.3-0.2,0.6-0.3,0.8-0.5c26-14.6,52.1-29.3,78.1-43.9c0.3-0.2,0.6-0.4,0.9-0.6
		C89.9,10.2,89.9,10.3,90,10.5z"/>
</g>
</svg>
