<?xml version="1.0" encoding="utf-8"?>
<!-- Generator: Adobe Illustrator 24.0.2, SVG Export Plug-In . SVG Version: 6.00 Build 0)  -->
<svg version="1.1" id="Слой_1" xmlns="http://www.w3.org/2000/svg" xmlns:xlink="http://www.w3.org/1999/xlink" x="0px" y="0px"
	 viewBox="0 0 100 100" style="enable-background:new 0 0 100 100;" xml:space="preserve">
<style type="text/css">
	.st0{fill:#024C42;}
</style>
<g>
	<path class="st0" d="M10,30c4.1,0,8.3,0,12.4,0c0.4,0,1-0.2,1.3-0.5c5.5-4.7,11-9.4,16.4-14.1c0.2-0.2,0.6-0.4,0.9-0.4
		c2.9,0,5.8,0,8.7,0c0.1,0,0.1,0,0.3,0.1c0,23.3,0,46.5,0,69.9c-0.2,0-0.4,0-0.6,0c-2.7,0-5.4,0-8,0c-0.4,0-0.8-0.2-1.1-0.4
		c-5.5-4.7-11-9.4-16.5-14.1c-0.3-0.3-0.8-0.4-1.2-0.4c-4.1,0-8.3,0-12.4,0C10,56.7,10,43.3,10,30z"/>
	<path class="st0" d="M90,52.7c-0.2,1.6-0.4,3.3-0.6,4.9c-1.6,9.3-5.7,17.3-12.3,24.1c-0.1,0.1-0.1,0.1-0.1,0.1
		c-2.3-2.3-4.7-4.7-7-7.1C76.5,67.8,80,59.6,80,50c0-9.6-3.5-17.8-10.1-24.6c2.3-2.3,4.7-4.7,7.1-7.1c1.1,1.3,2.4,2.6,3.5,4.1
		c5.6,7.2,8.7,15.3,9.4,24.3c0,0.2,0.1,0.5,0.1,0.7C90,49.1,90,50.9,90,52.7z"/>
	<path class="st0" d="M62.6,32.3c9.6,9.4,10,25.4,0.2,35.2c-2.3-2.3-4.7-4.7-7-7c5.8-5.9,5.5-15.3-0.2-21.2
		C57.9,37,60.3,34.6,62.6,32.3z"/>
</g>
</svg>
