<?xml version="1.0" encoding="utf-8"?>
<!-- Generator: Adobe Illustrator 24.0.2, SVG Export Plug-In . SVG Version: 6.00 Build 0)  -->
<svg version="1.1" id="Слой_1" xmlns="http://www.w3.org/2000/svg" xmlns:xlink="http://www.w3.org/1999/xlink" x="0px" y="0px"
	 viewBox="0 0 100 100" style="enable-background:new 0 0 100 100;" xml:space="preserve">
<style type="text/css">
	.st0{fill:#024C42;}
</style>
<g>
	<path class="st0" d="M15,90c0-5.6,0-11.3,0-16.9c0-3.9,1.6-6.9,4.9-9c7.3-4.8,15.4-7.6,24-8.5c13-1.3,25.2,1.4,36.2,8.6
		c3.2,2.1,4.8,5.1,4.8,8.9c0,5.7,0,11.4,0,17C61.7,90,38.3,90,15,90z"/>
	<path class="st0" d="M51.7,10c1.4,0.3,2.8,0.5,4.2,0.9c8.8,2.7,14.6,11,14.1,20.2c-0.5,9.1-7.2,16.8-16.2,18.5
		c-11.5,2.2-22.4-5.9-23.6-17.5c-1.2-10.9,6.7-20.7,17.6-22c0.2,0,0.3-0.1,0.5-0.1C49.4,10,50.6,10,51.7,10z"/>
</g>
</svg>
